<svg width="30" height="31" viewBox="0 0 30 31" fill="none" xmlns="http://www.w3.org/2000/svg">
<path d="M22.5 18.0577C22.5 16.8151 21.4926 15.8077 20.25 15.8077H9.75C8.50735 15.8077 7.5 16.8151 7.5 18.0577V18.8077C7.5 21.7648 10.2893 24.8077 15 24.8077C19.7108 24.8077 22.5 21.7648 22.5 18.8077V18.0577ZM19.125 10.1827C19.125 7.90452 17.2782 6.05769 15 6.05769C12.7218 6.05769 10.875 7.90452 10.875 10.1827C10.875 12.4609 12.7218 14.3077 15 14.3077C17.2782 14.3077 19.125 12.4609 19.125 10.1827ZM30 15.8077C30 24.0919 23.2842 30.8077 15 30.8077C6.71572 30.8077 0 24.0919 0 15.8077C0 7.52341 6.71572 0.807686 15 0.807686C23.2842 0.807686 30 7.52341 30 15.8077ZM27.75 15.8077C27.75 8.76606 22.0416 3.05769 15 3.05769C7.95837 3.05769 2.25 8.76606 2.25 15.8077C2.25 22.8493 7.95837 28.5577 15 28.5577C22.0416 28.5577 27.75 22.8493 27.75 15.8077Z" fill="#F1EEF5"/>
</svg>
